<!--?xml version="1.0" encoding="utf-8"?-->
<!-- Generator: Adobe Illustrator 19.1.1, SVG Export Plug-In . SVG Version: 6.00 Build 0)  -->
<svg version="1.1" id="_x31_0" xmlns="http://www.w3.org/2000/svg" xmlns:xlink="http://www.w3.org/1999/xlink" x="0px" y="0px" viewBox="0 0 512 512" style="width: 64px; height: 64px; opacity: 1;" xml:space="preserve">
<style type="text/css">
	.st0{fill:#374149;}
</style>
<g>
	<polygon class="st0" points="296.961,137.367 213.992,137.367 213.738,137.367 213.738,137.367 213.578,137.367 213.578,148.285 
		296.961,148.285 	" style="fill: rgb(48, 178, 127);"></polygon>
	<polygon class="st0" points="260.543,163.098 213.879,163.098 213.738,163.098 213.738,163.098 213.578,163.098 213.578,174.016 
		260.543,174.016 	" style="fill: rgb(48, 178, 127);"></polygon>
	<polygon class="st0" points="260.543,188.832 213.879,188.832 213.738,188.832 213.738,188.832 213.578,188.832 213.578,199.75 
		260.543,199.75 	" style="fill: rgb(48, 178, 127);"></polygon>
	<path class="st0" d="M256,0c-50.434,0-91.465,41.031-91.465,91.461v183.942c0,28.183,12.789,54.402,35.117,71.957
		c7.969,6.211,14.13,14.051,17.946,22.797c-0.566,2.309-0.66,4.68-0.281,6.973l5.738,30.824c1.234,8.13,7.586,14.238,15.539,15.301
		v18.348h-16.461l-10.207,9.793l-15.882,34.957L206.27,512h99.554l10.129-25.664l-15.878-34.942l-10.207-9.793h-16.465V423.25
		c7.894-1.059,14.27-7.134,15.614-15.305l5.656-30.746c0.382-2.379,0.289-4.782-0.266-7.094c3.828-8.722,9.992-16.547,17.969-22.766
		c22.301-17.535,35.09-43.754,35.09-71.938V91.461C347.465,41.031,306.434,0,256,0z M264.641,384.75l-1.516,9.66l-1.109,0.398
		h-12.031l-1.106-0.398l-1.454-9.684h14.926L264.641,384.75z M258.836,363.981h-5.531c-5.602-17.078-16.527-32.637-31.742-44.602
		c-13.691-10.719-21.504-26.758-21.504-43.977v-31.106h111.887v31.106c0,17.218-7.817,33.258-21.508,43.977
		C275.222,331.274,264.367,346.766,258.836,363.981z M311.946,109.668v126.77H200.058v-126.77H311.946z M311.946,101.805H200.058
		V91.461c0-30.84,25.102-55.942,55.942-55.942c30.844,0,55.946,25.102,55.946,55.942V101.805z M244.293,458.305l-12.558,7.402
		l-10.012,5.754l5.668-13.289h9.122L244.293,458.305z" style="fill: rgb(48, 178, 127);"></path>
</g>
</svg>
